<?xml version="1.0" encoding="UTF-8"?>
<svg width="44px" height="33px" viewBox="0 0 44 33" version="1.1" xmlns="http://www.w3.org/2000/svg" xmlns:xlink="http://www.w3.org/1999/xlink">
    <title>Driver License Card-595b40b75ba036ed117d7cc5</title>
    <g id="页面-2" stroke="none" stroke-width="1" fill="none" fill-rule="evenodd">
        <g id="HRI-Wallets-添加新账户" transform="translate(-742.000000, -530.000000)" fill="#FFFFFF" fill-rule="nonzero">
            <g id="Driver-License-Card-595b40b75ba036ed117d7cc5" transform="translate(742.000000, 530.000000)">
                <path d="M4.4,0 C1.969,0 0,2.2825 0,5.0875 L0,27.9125 C0,30.7153 1.969,33 4.4,33 L39.6,33 C42.031,33 44,30.7175 44,27.9125 L44,5.0875 C44,2.2825 42.031,0 39.6,0 L4.4,0 Z M12.1,2.2 C13.9216,2.2 15.4,3.6784 15.4,5.5 C15.4,7.3216 13.9216,8.8 12.1,8.8 L13.2,8.8 C15.631,8.8 17.6,10.769 17.6,13.2 L6.6,13.2 C6.6,10.769 8.569,8.8 11,8.8 L12.1,8.8 C10.2784,8.8 8.8,7.3216 8.8,5.5 C8.8,3.6784 10.2784,2.2 12.1,2.2 Z M24.2,4.4 L39.6,4.4 L39.6,8.8 L24.2,8.8 L24.2,4.4 Z M24.2,11 L35.2,11 L35.2,15.4 L24.2,15.4 L24.2,11 Z M6.6,15.4 L17.6,15.4 L19.8,22 L19.8,26.4 L19.8,27.5 C19.8,28.1072 19.3072,28.6 18.7,28.6 L16.5,28.6 C15.8928,28.6 15.4,28.1072 15.4,27.5 L15.4,26.4 L8.8,26.4 L8.8,27.5 C8.8,28.1072 8.3072,28.6 7.7,28.6 L5.5,28.6 C4.8928,28.6 4.4,28.1072 4.4,27.5 L4.4,26.4 L4.4,22 L6.6,15.4 Z M24.2,17.6 L39.6,17.6 L39.6,22 L24.2,22 L24.2,17.6 Z M7.7,22 C7.09248672,22 6.6,22.4924876 6.6,23.1 C6.6,23.7075124 7.09248672,24.2 7.7,24.2 C8.30751328,24.2 8.8,23.7075124 8.8,23.1 C8.8,22.4924876 8.30751328,22 7.7,22 Z M16.5,22 C15.8924867,22 15.4,22.4924876 15.4,23.1 C15.4,23.7075124 15.8924867,24.2 16.5,24.2 C17.1075133,24.2 17.6,23.7075124 17.6,23.1 C17.6,22.4924876 17.1075133,22 16.5,22 Z M24.2,24.2 L35.2,24.2 L35.2,28.6 L24.2,28.6 L24.2,24.2 Z" id="形状"></path>
            </g>
        </g>
    </g>
</svg>