<?xml version="1.0" encoding="UTF-8"?>
<svg width="145px" height="91px" viewBox="0 0 145 91" version="1.1" xmlns="http://www.w3.org/2000/svg" xmlns:xlink="http://www.w3.org/1999/xlink">
    <title>pagenotfound-icon</title>
    <g id="页面-1" stroke="none" stroke-width="1" fill="none" fill-rule="evenodd" opacity="0.5">
        <g id="pagenotfound-icon" transform="translate(1.000000, 1.000000)" stroke="#f2c97d" stroke-width="2">
            <path d="M53.3900519,16.0950362 L53.1500519,16.9050362 L53.1500519,16.9050362 C51.5563699,13.5581722 48.7609153,10.9340865 45.3200519,9.55503622 C42.6275821,8.50355891 39.7605184,7.97086187 36.8700519,7.98503622 C34.9727928,7.98321398 33.0823179,8.21154842 31.2400519,8.66503622 C29.9030222,8.99850504 28.6225501,9.52754219 27.4400519,10.2350362 L27.4400519,10.2350362 L29.4400519,6.56503622 C31.6574574,2.41195875 36.0339877,-0.128752619 40.7400519,0.00503622094 C42.4483888,0.0779178595 44.1350941,0.41525891 45.7400519,1.00503622 C45.7899564,1.00066743 45.8401473,1.00066743 45.8900519,1.00503622 C51.9007298,3.35557765 55.1457136,9.88448501 53.3900519,16.0950362 Z" id="路径"></path>
            <path d="M2.47005188,51.3450362 L4.01005188,48.4850362 C3.43803665,49.405587 2.92371436,50.360757 2.47005188,51.3450362 L2.47005188,51.3450362 Z" id="路径"></path>
            <path d="M26.0100519,36.3750362 C17.0841791,36.367762 8.77852639,40.9396463 4.01005188,48.4850362 L2.46005188,51.3350362 C0.834901367,54.7740555 -0.00536895351,58.5313619 2.58131729e-05,62.3350362 C2.58131729e-05,76.6944397 11.6406484,88.3350362 26.0000519,88.3350362 C40.3594554,88.3350362 52.0000519,76.6944397 52.0000519,62.3350362 C52.0000519,47.9756327 40.3594554,36.3350362 26.0000519,36.3350362 L26.0100519,36.3750362 Z M26.0100519,80.2150362 C16.3941926,80.2133765 8.50980886,72.5909097 8.18341138,62.9805914 C7.8570139,53.3702731 15.2060586,45.2304298 24.799647,44.5763552 C34.3932355,43.9222805 42.7790616,50.989347 43.7600519,60.5550362 C43.8200519,61.1550362 43.8400519,61.7650362 43.8400519,62.3850362 C43.8400519,67.1138462 41.9615394,71.6489765 38.6177658,74.9927501 C35.2739922,78.3365238 30.7388619,80.2150362 26.0100519,80.2150362 L26.0100519,80.2150362 Z" id="形状"></path>
            <path d="M43.8500519,62.3850362 C43.7725149,71.9817235 36.0612289,79.7683684 26.4657495,79.9392275 C16.8702701,80.1100866 8.88665907,72.6029083 8.46751838,63.015065 C8.04837769,53.4272217 15.346419,45.251993 24.920203,44.5848516 C34.493987,43.9177101 42.8553566,51.0017253 43.7700519,60.5550362 C43.8300519,61.1550362 43.8500519,61.7650362 43.8500519,62.3850362 Z" id="路径" fill="#CCCDCD" fill-rule="nonzero" stroke-linecap="round" stroke-linejoin="round"></path>
            <path d="M54.6400519,24.6550362 L52.0100519,62.3850362 C52.0295109,50.7948201 44.3749622,40.5913292 33.2421251,37.3674452 C22.1092881,34.1435611 10.1869095,38.6779001 4.01005188,48.4850362 L21.6100519,16.2350362 C22.9640661,13.7596774 24.951997,11.688916 27.3700519,10.2350362 L27.3700519,10.2350362 C28.5525501,9.52754219 29.8330222,8.99850504 31.1700519,8.66503622 C33.0123179,8.21154842 34.9027928,7.98321398 36.8000519,7.98476062 C39.6905184,7.97086187 42.5575821,8.50355891 45.2500519,9.55503622 C48.6909153,10.9340865 51.4863699,13.5581722 53.0800519,16.9050362 L53.0800519,16.9050362 C54.2735929,19.3058716 54.8117468,21.9793921 54.6400519,24.6550362 L54.6400519,24.6550362 Z" id="路径" fill="#F2F2F2" fill-rule="nonzero" stroke-linecap="round" stroke-linejoin="round"></path>
            <path d="M88.8700519,16.0950362 L89.1000519,16.9050362 L89.1000519,16.9050362 C90.6937339,13.5581722 93.4891884,10.9340865 96.9300519,9.55503622 C99.6225216,8.50355891 102.489585,7.97086187 105.380052,7.98503622 C107.277311,7.98321398 109.167786,8.21154842 111.010052,8.66503622 C112.347082,8.99850504 113.627554,9.52754219 114.810052,10.2350362 L114.810052,10.2350362 L112.810052,6.56503622 C110.592646,2.41195875 106.216116,-0.128752619 101.510052,0.00503622094 C99.8185922,0.0830302009 98.1491381,0.420293656 96.5600519,1.00503622 C96.5135451,0.999573123 96.4665587,0.999573123 96.4200519,1.00503622 C90.3828068,3.32908947 87.110247,9.86987447 88.8700519,16.0950362 L88.8700519,16.0950362 Z" id="路径"></path>
            <path d="M90.2500519,62.3850362 C90.2500519,76.7444397 101.890648,88.3850362 116.250052,88.3850362 C130.609455,88.3850362 142.250078,76.7444397 142.250078,62.3850362 C142.255473,58.5813619 141.415202,54.8240555 139.790052,51.3850362 L138.230052,48.4850362 C132.054176,38.6794827 120.134462,34.1448528 109.002794,37.3660791 C97.8711268,40.5873054 90.2150636,50.7866759 90.2300299,62.3750362 L90.2500519,62.3850362 Z M98.4000519,62.3850362 C98.4000519,61.7650362 98.4000519,61.1550362 98.4800519,60.5550362 C99.4021458,50.8359994 107.903756,43.6237045 117.643111,44.2981582 C127.382467,44.9726119 134.808785,53.2879214 134.382408,63.0412868 C133.956032,72.7946522 125.832409,80.4301828 116.071352,80.2521594 C106.310294,80.0741361 98.4704971,72.1474627 98.4000519,62.3850362 Z" id="形状"></path>
            <path d="M98.4000519,62.3850362 C98.4775888,71.9817235 106.188875,79.7683684 115.784354,79.9392275 C125.379834,80.1100866 133.363445,72.6029083 133.782585,63.015065 C134.201726,53.4272217 126.903685,45.251993 117.329901,44.5848516 C107.756117,43.9177101 99.3947472,51.0017253 98.4800519,60.5550362 C98.4200519,61.1550362 98.4000519,61.7650362 98.4000519,62.3850362 Z" id="路径" fill="#CCCDCD" fill-rule="nonzero" stroke-linecap="round" stroke-linejoin="round"></path>
            <path d="M87.6100519,24.6550362 L90.2500519,62.3850362 C90.2350636,50.7966759 97.8911268,40.5973054 109.022794,37.3760791 C120.154462,34.1548528 132.074176,38.6894827 138.250052,48.4950362 L120.650052,16.2450362 C119.298786,13.7676633 117.310231,11.6962523 114.890052,10.2450362 L114.890052,10.2450362 C113.707554,9.53754219 112.427082,9.00850504 111.090052,8.67503622 C109.247786,8.22154842 107.357311,7.99321398 105.460052,7.99476062 C102.569585,7.98086187 99.7025216,8.51355891 97.0100519,9.56503622 C93.5691884,10.9440865 90.7737339,13.5681722 89.1800519,16.9150362 L89.1800519,16.9150362 C87.9847962,19.3119495 87.4432301,21.9818359 87.6100519,24.6550362 L87.6100519,24.6550362 Z" id="路径" fill="#F2F2F2" fill-rule="nonzero" stroke-linecap="round" stroke-linejoin="round"></path>
            <path d="M83.0100519,64.9750362 C83.0100519,71.5196103 77.704626,76.8250357 71.1600519,76.8250357 C64.6154778,76.8250357 59.3099715,71.5196103 59.3099715,64.9750362 C59.3052586,63.6893398 59.5147963,62.4118357 59.9300519,61.1950362 C61.7829183,55.6944339 67.3473335,52.3455221 73.0753067,53.283639 C78.8032799,54.2217559 83.0086793,59.17075 83.0100519,64.9750362 L83.0100519,64.9750362 Z" id="路径" fill="#CCCDCD" fill-rule="nonzero" stroke-linecap="round" stroke-linejoin="round"></path>
            <path d="M90.0100519,61.1050362 L90.0100519,61.1050362 C88.143049,52.2161942 80.3028494,45.8516677 71.2200519,45.8516677 C62.1372543,45.8516677 54.2970547,52.2161942 52.4300519,61.1050362 L52.4300519,61.1050362 C51.0285084,68.2447628 53.7875722,75.5627867 59.5539101,80.0000568 C65.3202481,84.4373268 73.1008663,85.2297213 79.6433414,82.0460067 C86.1858165,78.8622922 90.3634995,72.2507211 90.4300519,64.9750362 C90.4172491,63.6743874 90.2765721,62.3781498 90.0100519,61.1050362 L90.0100519,61.1050362 Z" id="路径"></path>
            <path d="M90.0100519,61.0650362 C88.143049,52.1761942 80.3028494,45.8116677 71.2200519,45.8116677 C62.1372543,45.8116677 54.2970547,52.1761942 52.4300519,61.0650362 L54.9500519,27.7950362 C55.109953,25.7308489 55.906602,23.7671789 57.2300519,22.1750362 C60.6000519,18.1750362 65.8900519,14.9550362 71.2300519,14.9550362 C76.5700519,14.9550362 82.0800519,18.1150362 85.5200519,22.0850362 C86.8923262,23.7010277 87.7029486,25.7188108 87.8300519,27.8350362 L90.0100519,61.0650362 Z" id="路径"></path>
        </g>
    </g>
</svg>