<?xml version="1.0" encoding="UTF-8"?>
<svg width="119px" height="28px" viewBox="0 0 119 28" version="1.1" xmlns="http://www.w3.org/2000/svg" xmlns:xlink="http://www.w3.org/1999/xlink">
    <title>horizontal_blue</title>
    <g id="页面-2" stroke="none" stroke-width="1" fill="none" fill-rule="evenodd">
        <g id="HRI-Wallets-账户详情-deposit" transform="translate(-16.000000, -22.000000)" fill="#FFFFFF" fill-rule="nonzero">
            <g id="NAV" transform="translate(16.000000, 16.000000)">
                <g id="horizontal_blue" transform="translate(0.000000, 6.000000)">
                    <polygon id="路径" points="44.8843246 9.49350695 39.7125422 9.49350695 39.7125422 13.1593362 44.0549631 13.1593362 44.0549631 15.408372 39.7125422 15.408372 39.7125422 21.1231025 37.3082921 21.1231025 37.3082921 7.2523973 44.8843246 7.2523973"></polygon>
                    <path d="M54.6400507,19.0682566 L55.8965683,19.0682566 L55.8965683,21.1201302 L52.6419982,21.1201302 L52.6419982,19.9520187 C51.9094454,20.8843282 50.8904586,21.3559322 49.5750573,21.3658398 C48.5071671,21.3658398 47.6169259,21.0418598 46.914314,20.3839921 C46.2331838,19.7546172 45.8463051,18.8724472 45.8463051,17.9486925 C45.8463051,17.0249379 46.2331838,16.1427679 46.914314,15.513393 C47.6129338,14.8654329 48.5111592,14.5414529 49.5750573,14.5414529 L52.3695364,14.5414529 L52.3695364,12.9998231 L46.5809726,12.9998231 L46.5809726,10.8686883 L54.6430448,10.8686883 L54.6400507,19.0682566 Z M52.3745266,17.7802626 L52.3745266,16.4367857 L49.9612943,16.4367857 C49.5018705,16.4205398 49.0521453,16.5705308 48.6957944,16.8588514 C48.3656198,17.1120602 48.1748219,17.5048276 48.1808119,17.9189696 C48.1731465,18.3366177 48.3589178,18.7346712 48.6848161,18.9989031 C49.0424695,19.2936636 49.4967272,19.4477416 49.9612943,19.4318672 C51.4254017,19.4318672 52.3745266,18.7739995 52.3745266,17.7812533 L52.3745266,17.7802626 Z" id="形状"></path>
                    <path d="M58.429564,19.82421 C57.370656,18.792824 56.8466912,17.5167192 56.8466912,15.984997 C56.8466912,14.4532748 57.370656,13.1860868 58.429564,12.1547008 C59.488472,11.1233148 60.7938929,10.6229787 62.3757677,10.6229787 C63.7310901,10.6229787 64.8987831,11.0192845 65.8978094,11.792081 C66.8672437,12.5395249 67.5312736,13.6101483 67.7671163,14.805987 L65.353884,14.805987 C64.8770503,13.5874674 63.6925695,12.7871416 62.3757677,12.793744 C61.522984,12.7734916 60.6996152,13.1036687 60.1002633,13.7062383 C59.4774936,14.3155585 59.171099,15.071512 59.171099,15.984997 C59.171099,16.898482 59.4774936,17.6692969 60.1002633,18.2726726 C60.6994458,18.8756057 61.5228361,19.2061499 62.3757677,19.1861576 C63.6931054,19.2033411 64.881688,18.4038026 65.353884,17.1828315 L67.7671163,17.1828315 C67.5313269,18.3789635 66.8673105,19.4499171 65.8978094,20.1977283 C64.8997811,20.973497 63.7310901,21.3658398 62.3757677,21.3658398 C60.7938929,21.3658398 59.4774936,20.8555961 58.429564,19.82421 Z" id="路径"></path>
                    <path d="M80.1027455,16.8588514 L71.5466493,16.8588514 C71.714318,17.6148049 72.0706141,18.2142175 72.6345001,18.6560985 C73.2062919,19.109845 73.9206787,19.3493975 74.6525132,19.3327908 C75.9499499,19.3327908 77.0258244,18.7541842 77.4909056,17.8605145 L79.9540393,17.8605145 C79.5889476,18.9007297 78.8870392,19.7915884 77.9579828,20.3938997 C76.998545,21.0418598 75.8907336,21.3658398 74.6345487,21.3658398 C73.0616562,21.3658398 71.7562352,20.8555961 70.7073075,19.82421 C69.6583798,18.792824 69.1244347,17.5167192 69.1244347,15.984997 C69.1244347,14.4532748 69.6493976,13.1860868 70.7073075,12.1547008 C71.7652175,11.1233148 73.0616562,10.6229787 74.6345487,10.6229787 C76.2074412,10.6229787 77.5288306,11.1342132 78.5917307,12.1547008 C79.6546308,13.1751884 80.1636252,14.4720994 80.1636252,16.0137292 C80.1660851,16.2965981 80.1457268,16.5792085 80.1027455,16.8588514 L80.1027455,16.8588514 Z M74.6325526,12.6560277 C73.9289671,12.6445571 73.2421136,12.8693981 72.6834035,13.2940802 C72.1293684,13.7241965 71.73595,14.3257211 71.5656118,15.0031492 L77.7084757,15.0031492 C77.5437615,14.3207854 77.1450494,13.7165618 76.5807038,13.2940802 C76.0217107,12.8706495 75.3356189,12.6459429 74.6325526,12.6560277 L74.6325526,12.6560277 Z" id="形状"></path>
                    <polygon id="路径" points="84.4172216 19.0484413 86.2366271 19.0484413 86.2366271 21.1201302 82.1447113 21.1201302 82.1447113 6.63812321 84.4202157 6.63812321"></polygon>
                    <path d="M98.2059799,16.8588514 L89.6498837,16.8588514 C89.8185505,17.6148049 90.1738486,18.2142175 90.7387326,18.6560985 C91.3100935,19.1099257 92.0242013,19.3495032 92.7557477,19.3327908 C94.0531844,19.3327908 95.1300569,18.7541842 95.595138,17.8605145 L98.0582718,17.8605145 C97.6926459,18.9004403 96.99086,19.7911435 96.0622153,20.3938997 C95.1034428,21.0418598 93.9956314,21.3658398 92.7387812,21.3658398 C91.1668867,21.3658398 89.8604677,20.8555961 88.812538,19.82421 C87.7646084,18.792824 87.2296652,17.5167192 87.2296652,15.984997 C87.2296652,14.4532748 87.7536301,13.1860868 88.812538,12.1547008 C89.871446,11.1233148 91.1668867,10.6229787 92.7387812,10.6229787 C94.3106757,10.6229787 95.6330631,11.1342132 96.6959632,12.1547008 C97.7588633,13.1751884 98.2688557,14.4720994 98.2688557,16.0137292 C98.270698,16.2966525 98.249672,16.5792666 98.2059799,16.8588514 L98.2059799,16.8588514 Z M92.7357871,12.6560277 C91.2860286,12.6285002 90.0115041,13.6042079 89.6698443,15.0031492 L95.8127082,15.0031492 C95.6476071,14.3209513 95.2489742,13.7168476 94.6849363,13.2940802 C94.1255633,12.8706451 93.4391582,12.645951 92.7357871,12.6560277 L92.7357871,12.6560277 Z" id="形状"></path>
                    <path d="M108.358921,13.6646262 L106.063456,13.6646262 C105.995267,13.4312277 105.88093,13.2136502 105.727121,13.0245922 C105.554806,12.8148273 105.334425,12.6490459 105.084391,12.541099 C104.773263,12.4098886 104.437231,12.3470244 104.099337,12.3568168 C103.575705,12.3568168 103.137238,12.4681127 102.783936,12.6907045 C102.430634,12.9132963 102.255646,13.2016088 102.258973,13.5556421 C102.247219,13.8435663 102.374812,14.1197223 102.602294,14.2987155 C102.837164,14.4902634 103.225064,14.6471344 103.765995,14.7693288 L105.584403,15.1507732 C106.593077,15.3634573 107.343927,15.7019686 107.836953,16.1663069 C108.329979,16.6306453 108.57882,17.2369933 108.583478,17.9853508 C108.588997,18.6146598 108.382437,19.2277386 107.996637,19.7271151 C107.576309,20.254183 107.021489,20.6599139 106.389812,20.902162 C105.638785,21.1961511 104.836644,21.3399234 104.029475,21.3252185 C102.724054,21.3252185 101.673463,21.0560608 100.877702,20.5177453 C100.079279,19.9787693 99.6072116,18.9969216 99.4545133,18.0329075 L101.904673,18.0329075 C101.990967,18.4677933 102.245312,18.8518692 102.613273,19.1029334 C102.974559,19.3446799 103.444298,19.465223 104.022489,19.4645625 C104.621306,19.4645625 105.101357,19.3440194 105.462643,19.1029334 C105.82393,18.8618473 106.005903,18.5646179 106.008565,18.2112452 C106.013657,17.9232 105.883895,17.6490973 105.657259,17.4691625 C105.42372,17.2710095 105.061436,17.1207435 104.570406,17.0183645 L102.751001,16.6448463 C101.728354,16.4354647 100.971849,16.0824222 100.481484,15.5857188 C99.9911198,15.0890155 99.7479336,14.4585589 99.7519257,13.6943491 C99.733893,13.0886359 99.923557,12.4947913 100.289863,12.0100492 C100.686034,11.5113843 101.211991,11.1297234 101.810858,10.9063374 C102.529412,10.6334511 103.294205,10.500578 104.063408,10.5149853 C105.312939,10.5149853 106.29766,10.7762169 107.017571,11.2986802 C107.73715,11.8227947 108.18227,12.7749195 108.358921,13.6646262 Z" id="路径"></path>
                    <path d="M118.775342,13.6646262 L116.479877,13.6646262 C116.411687,13.4312277 116.297351,13.2136502 116.143542,13.0245922 C115.971227,12.8148273 115.750846,12.6490459 115.500812,12.541099 C115.189684,12.4098886 114.853652,12.3470244 114.515758,12.3568168 C114.05412,12.3406819 113.597535,12.4565767 113.200356,12.6907045 C112.845724,12.9139568 112.670736,13.2022693 112.675394,13.5556421 C112.66355,13.8438041 112.791593,14.1201335 113.019713,14.2987155 C113.253252,14.4902634 113.64082,14.6471344 114.182416,14.7693288 L116.000824,15.1507732 C117.010163,15.3634573 117.761346,15.7019686 118.254371,16.1663069 C118.747397,16.6306453 118.995906,17.2369933 118.999899,17.9853508 C119.005245,18.6144714 118.799088,19.2273943 118.414056,19.7271151 C117.994696,20.2546047 117.440996,20.6612991 116.810225,20.9051343 C116.059198,21.1991234 115.257057,21.3428957 114.449888,21.3281908 C113.144467,21.3281908 112.093876,21.0590331 111.298115,20.5207176 C110.499692,19.9817416 110.027625,18.9998938 109.874926,18.0358798 L112.326084,18.0358798 C112.411628,18.4708101 112.665714,18.8550344 113.033686,19.1059057 C113.394972,19.3476522 113.864711,19.4681953 114.442902,19.4675348 C115.041719,19.4675348 115.522103,19.3469917 115.884054,19.1059057 C116.246006,18.8648196 116.427647,18.5675902 116.428978,18.2142175 C116.43407,17.9261723 116.304308,17.6520695 116.077672,17.4721347 C115.844133,17.2739818 115.482182,17.1237158 114.991817,17.0213368 L113.172412,16.6448463 C112.149765,16.4354647 111.39326,16.0824222 110.902895,15.5857188 C110.412531,15.0890155 110.169345,14.4585589 110.173337,13.6943491 C110.155304,13.0886359 110.344968,12.4947913 110.711274,12.0100492 C111.107445,11.5113843 111.633402,11.1297234 112.232269,10.9063374 C112.950823,10.6334511 113.715616,10.500578 114.484819,10.5149853 C115.73435,10.5149853 116.719071,10.7762169 117.438982,11.2986802 C118.158561,11.8227947 118.603681,12.7749195 118.775342,13.6646262 Z" id="路径"></path>
                    <path d="M24.3878184,0 L3.81646003,0 C1.70868736,0 0,1.69625163 0,3.78868405 L0,24.2123067 C0.000551093876,26.3043522 1.70907705,28 3.81646003,28 L24.3878184,28 C26.4950398,28 28.2032815,26.304192 28.2032815,24.2123067 L28.2032815,3.79066558 C28.2040748,2.78559198 27.8024406,1.8214136 27.0868165,1.11044034 C26.3711925,0.399467072 25.4002608,0 24.3878184,0 Z M16.9325473,20.8476699 L16.9325473,22.9213404 L13.0582016,22.9213404 L13.0582016,17.4067443 C10.7118372,16.7528396 9.255714,13.9638371 10.987293,11.2887725 C11.1592339,11.0216482 11.386921,10.7942668 11.6549739,10.6219879 C14.7289009,8.64045858 17.9774829,10.8062701 17.9774829,13.7052475 C17.9738653,15.4298365 16.8160199,16.9418887 15.1430827,17.4067443 L15.1430827,20.8496515 L16.9325473,20.8476699 Z M22.5504483,18.9850324 L18.6082367,18.9850324 L18.6082367,16.9143342 L20.4625732,16.9143342 L20.4625732,12.5827112 C20.4625732,11.1906868 19.5334089,9.38055978 18.3826824,8.583985 C13.2617994,5.04001982 7.74170515,8.62658788 7.74170515,13.4694455 C7.73344888,15.4721079 8.69049564,17.357909 10.316618,18.5431513 L10.738784,18.8542514 L10.738784,22.8539684 L8.65589903,22.8539684 L8.65589903,19.8727575 C6.76133777,18.2753816 5.66707265,15.9340406 5.66181427,13.4664732 C5.66181427,7.15926542 12.7098898,2.45610559 19.3976771,6.71243056 C21.1522108,7.82902233 22.5584326,10.4773363 22.5584326,12.5500159 L22.5504483,18.9850324 Z" id="形状"></path>
                    <ellipse id="椭圆形" cx="14.1398298" cy="13.704915" rx="1.84435621" ry="1.83093309"></ellipse>
                </g>
            </g>
        </g>
    </g>
</svg>