<?xml version="1.0" encoding="UTF-8"?>
<svg width="50px" height="50px" viewBox="0 0 50 50" version="1.1" xmlns="http://www.w3.org/2000/svg" xmlns:xlink="http://www.w3.org/1999/xlink">
    <title>metamask</title>
    <g id="页面-1" stroke="none" stroke-width="1" fill="none" fill-rule="evenodd">
        <g id="tracker" transform="translate(-601.000000, -657.000000)">
            <g id="metamask" transform="translate(601.000000, 657.000000)">
                <circle id="椭圆形" fill="#FFD4A1" cx="25" cy="25" r="25"></circle>
                <g id="MetaMask_Fox" transform="translate(11.000000, 12.000000)" fill-rule="nonzero" stroke-linecap="round" stroke-linejoin="round" stroke-width="0.5">
                    <polygon id="路径" stroke="#E2761B" fill="#E2761B" points="26.6054902 0 15.68 8.12774958 17.7003922 3.33248731"></polygon>
                    <g id="编组" transform="translate(0.230588, 0.000000)" fill="#E4761B" stroke="#E4761B">
                        <polygon id="路径" points="1.15294118 0 11.9905882 8.20473773 10.0690196 3.33248731"></polygon>
                        <polygon id="路径" points="22.4439216 18.8401015 19.5341176 23.3054146 25.76 25.0211506 27.5498039 18.9390863"></polygon>
                        <polygon id="路径" points="0 18.9390863 1.77882353 25.0211506 8.00470588 23.3054146 5.09490196 18.8401015"></polygon>
                        <polygon id="路径" points="7.65333333 11.2952623 5.91843137 13.9238579 12.1003922 14.1988156 11.8807843 7.54483926"></polygon>
                        <polygon id="路径" points="19.8745098 11.2952623 15.5921569 7.4678511 15.4494118 14.1988156 21.6203922 13.9238579"></polygon>
                        <polygon id="路径" points="8.00470588 23.3054146 11.7160784 21.4906937 8.50980392 18.9830795"></polygon>
                        <polygon id="路径" points="15.8117647 21.4906937 19.5341176 23.3054146 19.0180392 18.9830795"></polygon>
                    </g>
                    <g id="编组" transform="translate(8.235294, 21.490694)" fill="#D7C1B3" stroke="#D7C1B3">
                        <polygon id="路径" points="11.5294118 1.81472081 7.80705882 0 8.10352941 2.43062606 8.07058824 3.4534687"></polygon>
                        <polygon id="路径" points="0 1.81472081 3.45882353 3.4534687 3.43686275 2.43062606 3.71137255 0"></polygon>
                    </g>
                    <polygon id="路径" stroke="#233447" fill="#233447" points="11.7490196 17.3773266 8.65254902 16.464467 10.8376471 15.463621"></polygon>
                    <polygon id="路径" stroke="#233447" fill="#233447" points="16.24 17.3773266 17.1513725 15.463621 19.347451 16.464467"></polygon>
                    <g id="编组" transform="translate(5.325490, 13.923858)" fill="#CD6116" stroke="#CD6116">
                        <polygon id="路径" points="2.90980392 9.38155668 3.43686275 4.91624365 0 5.01522843"></polygon>
                        <polygon id="路径" points="13.9121569 4.91624365 14.4392157 9.38155668 17.3490196 5.01522843"></polygon>
                        <polygon id="路径" points="16.5254902 0 10.3545098 0.274957699 10.9254902 3.4534687 11.8368627 1.53976311 14.0329412 2.54060914"></polygon>
                        <polygon id="路径" points="3.32705882 2.54060914 5.52313725 1.53976311 6.42352941 3.4534687 7.0054902 0.274957699 0.823529412 0"></polygon>
                    </g>
                    <g id="编组" transform="translate(6.149020, 13.923858)" fill="#E4751F" stroke="#E4751F">
                        <polygon id="路径" points="0 0 2.59137255 5.05922166 2.50352941 2.54060914"></polygon>
                        <polygon id="路径" points="13.2094118 2.54060914 13.0996078 5.05922166 15.7019608 0"></polygon>
                        <polygon id="路径" points="6.18196078 0.274957699 5.6 3.4534687 6.32470588 7.20389171 6.48941176 2.26565144"></polygon>
                        <polygon id="路径" points="9.53098039 0.274957699 9.2345098 2.25465313 9.36627451 7.20389171 10.1019608 3.4534687"></polygon>
                    </g>
                    <polygon id="路径" stroke="#F6851B" fill="#F6851B" points="16.2509804 17.3773266 15.5152941 21.1277496 16.0423529 21.4906937 19.2486275 18.9830795 19.3584314 16.464467"></polygon>
                    <polygon id="路径" stroke="#F6851B" fill="#F6851B" points="8.65254902 16.464467 8.74039216 18.9830795 11.9466667 21.4906937 12.4737255 21.1277496 11.7490196 17.3773266"></polygon>
                    <polygon id="路径" stroke="#C0AD9E" fill="#C0AD9E" points="16.3058824 24.9441624 16.3388235 23.9213198 16.0643137 23.679357 11.9247059 23.679357 11.6721569 23.9213198 11.6941176 24.9441624 8.23529412 23.3054146 9.44313725 24.2952623 11.8917647 26 16.0972549 26 18.5568627 24.2952623 19.7647059 23.3054146"></polygon>
                    <polygon id="路径" stroke="#161616" fill="#161616" points="16.0423529 21.4906937 15.5152941 21.1277496 12.4737255 21.1277496 11.9466667 21.4906937 11.6721569 23.9213198 11.9247059 23.679357 16.0643137 23.679357 16.3388235 23.9213198"></polygon>
                    <g id="编组" fill="#763D16" stroke="#763D16">
                        <polygon id="路径" points="27.0666667 8.65566836 28 4.16835871 26.6054902 0 16.0423529 7.85279188 20.105098 11.2952623 25.8478431 12.9780034 27.1215686 11.4932318 26.572549 11.0972927 27.4509804 10.2944162 26.7701961 9.76649746 27.6486275 9.09560068"></polygon>
                        <polygon id="路径" points="0 4.16835871 0.933333333 8.65566836 0.340392157 9.09560068 1.21882353 9.76649746 0.549019608 10.2944162 1.42745098 11.0972927 0.878431373 11.4932318 2.14117647 12.9780034 7.88392157 11.2952623 11.9466667 7.85279188 1.38352941 0"></polygon>
                    </g>
                    <polygon id="路径" stroke="#F6851B" fill="#F6851B" points="25.8478431 12.9780034 20.105098 11.2952623 21.8509804 13.9238579 19.2486275 18.9830795 22.6745098 18.9390863 27.7803922 18.9390863"></polygon>
                    <polygon id="路径" stroke="#F6851B" fill="#F6851B" points="7.88392157 11.2952623 2.14117647 12.9780034 0.230588235 18.9390863 5.3254902 18.9390863 8.74039216 18.9830795 6.14901961 13.9238579"></polygon>
                    <polygon id="路径" stroke="#F6851B" fill="#F6851B" points="15.68 14.1988156 16.0423529 7.85279188 17.7113725 3.33248731 10.2996078 3.33248731 11.9466667 7.85279188 12.3309804 14.1988156 12.4627451 16.2005076 12.4737255 21.1277496 15.5152941 21.1277496 15.5372549 16.2005076"></polygon>
                </g>
            </g>
        </g>
    </g>
</svg>