<?xml version="1.0" encoding="UTF-8"?>
<svg width="50px" height="33px" viewBox="0 0 50 33" version="1.1" xmlns="http://www.w3.org/2000/svg" xmlns:xlink="http://www.w3.org/1999/xlink">
    <title>Meta_Platforms_Inc._logo</title>
    <defs>
        <linearGradient x1="13.8784354%" y1="55.858781%" x2="89.143574%" y2="58.5837954%" id="linearGradient-1">
            <stop stop-color="#FFFFFF" offset="0%"></stop>
            <stop stop-color="#FFFFFF" offset="40%"></stop>
            <stop stop-color="#E8E8E8" offset="83%"></stop>
            <stop stop-color="#DDDDDD" offset="100%"></stop>
        </linearGradient>
        <linearGradient x1="54.3150272%" y1="82.782443%" x2="54.3150272%" y2="39.3067715%" id="linearGradient-2">
            <stop stop-color="#DDDDDD" offset="0%"></stop>
            <stop stop-color="#FFFFFF" offset="100%"></stop>
        </linearGradient>
    </defs>
    <g id="页面-2" stroke="none" stroke-width="1" fill="none" fill-rule="evenodd">
        <g id="HRI-Wallets-添加新账户" transform="translate(-563.000000, -530.000000)" fill-rule="nonzero">
            <g id="Meta_Platforms_Inc._logo" transform="translate(563.000000, 530.000000)">
                <path d="M5.40061205,21.7627225 C5.40061205,23.6597906 5.81965503,25.1162827 6.36736681,25.9974346 C7.08547781,27.1515707 8.15655863,27.6405236 9.24850466,27.6405236 C10.6569064,27.6405236 11.9453331,27.2932461 14.4282932,23.8809424 C16.4174433,21.1459162 18.761302,17.3068586 20.3383642,14.9001047 L23.0091111,10.8226178 C24.8643761,7.9908377 27.0117541,4.84287958 29.4738489,2.70910995 C31.4838642,0.967539267 33.6521074,0 35.8342607,0 C39.4978439,0 42.9875504,2.10958115 45.6582974,6.06612565 C48.5811657,10.3993194 50,15.8572775 50,21.4897382 C50,24.8381152 49.3357908,27.2984293 48.2055919,29.2421466 C47.1136458,31.1219372 44.9853944,33 41.4052719,33 L41.4052719,27.6405236 C44.4707192,27.6405236 45.2357769,24.8415707 45.2357769,21.6383246 C45.2357769,17.0736126 44.1646961,12.0078534 41.8051885,8.3882199 C40.1307553,5.82078534 37.9607734,4.25198953 35.5734455,4.25198953 C32.9913757,4.25198953 30.9135485,6.18706806 28.5783836,9.6373822 C27.3369036,11.4705236 26.062387,13.7045026 24.6313813,16.225288 L23.0560579,18.9983246 C19.8915009,24.5737696 19.0899291,25.8436649 17.5076506,27.9394241 C14.7343163,31.6091623 12.3661149,33 9.24850466,33 C5.55014606,33 3.21150369,31.4087435 1.76311031,29.0106283 C0.580748366,27.0565445 0,24.4925654 0,21.5709424 L5.40061205,21.7627225 Z" id="Logo0" fill="#DDDDDD"></path>
                <path d="M4.25824176,6.44450262 C6.73424677,2.65209424 10.3074141,0 14.4056892,0 C16.779107,0 19.1386146,0.698010471 21.6024482,2.69701571 C24.2975379,4.8826178 27.1699819,8.48151832 30.7535819,14.4128796 L32.0385311,16.541466 C35.1404924,21.6763351 36.9053415,24.3180628 37.9381694,25.5637696 C39.2665878,27.1636649 40.1968285,27.6405236 41.4052719,27.6405236 C44.4707192,27.6405236 45.2357769,24.8415707 45.2357769,21.6383246 L50,21.4897382 C50,24.8381152 49.3357908,27.2984293 48.2055919,29.2421466 C47.1136458,31.1219372 44.9853944,33 41.4052719,33 C39.1796495,33 37.207887,32.5196859 35.0274725,30.4757592 C33.3513006,28.9069634 31.3917096,26.1201047 29.8841981,23.6148691 L25.3999165,16.1717277 C23.1499513,12.4363351 21.0860342,9.65120419 19.8915009,8.38994764 C18.6065517,7.03366492 16.9547225,5.39575916 14.3187509,5.39575916 C12.1852831,5.39575916 10.3734873,6.88335079 8.85728196,9.15879581 L4.25824176,6.44450262 Z" id="Logo1" fill="url(#linearGradient-1)"></path>
                <path d="M14.3187509,5.39575916 C12.1852831,5.39575916 10.3734873,6.88335079 8.85728196,9.15879581 C6.71338156,12.3741361 5.40061205,17.1634555 5.40061205,21.7627225 C5.40061205,23.6597906 5.81965503,25.1162827 6.36736681,25.9974346 L1.76311031,29.0106283 C0.580748366,27.0565445 0,24.4925654 0,21.5709424 C0,16.2581152 1.46751982,10.7206806 4.25824176,6.44450262 C6.73424677,2.65209424 10.3074141,0 14.4056892,0 L14.3187509,5.39575916 Z" id="Logo2" fill="url(#linearGradient-2)"></path>
            </g>
        </g>
    </g>
</svg>