<svg id="图层_1" data-name="图层 1" xmlns="http://www.w3.org/2000/svg" viewBox="0 0 530.62 530.62"><defs><style>.cls-1{fill:#191e21;}</style></defs><path class="cls-1" d="M320.71,261.05c0-41.75-46.44-72.87-90.38-44.41a32.17,32.17,0,0,0-9.56,9.6c-24.75,38.53-3.94,78.7,29.61,88.11V393.8h55.4V364H280.24v-49.6A55.46,55.46,0,0,0,320.71,261.05ZM246.17,243a5.26,5.26,0,0,1,1.08-1.08c26.86-19.84,57.05,10.34,37.2,37.21a5.22,5.22,0,0,1-1.08,1.07C256.51,300,226.32,269.85,246.17,243Z"/><path class="cls-1" d="M340.91,160.34C245.3,99,144.52,166.78,144.52,257.6a121.44,121.44,0,0,0,42.85,92.28v42.88h29.86v-57.6l-6-4.47a90.22,90.22,0,0,1-36.81-73.09c0-69.73,78.91-121.39,152.13-70.35,16.45,11.47,29.73,37.54,29.73,57.6v62.42h-26.5v29.85H386.1V244.41C386.1,214.61,366,176.42,340.91,160.34Z"/></svg>