<?xml version="1.0" encoding="UTF-8"?>
<svg width="44px" height="33px" viewBox="0 0 44 33" version="1.1" xmlns="http://www.w3.org/2000/svg" xmlns:xlink="http://www.w3.org/1999/xlink">
    <title>Driver License Card-595b40b75ba036ed117d7cc5</title>
    <g id="页面-2" stroke="none" stroke-width="1" fill="none" fill-rule="evenodd">
        <g id="HRI-Wallets-添加新账户" transform="translate(-671.000000, -616.000000)" fill="#FFFFFF" fill-rule="nonzero">
            <g id="Driver-License-Card-595b40b75ba036ed117d7cc5" transform="translate(671.000000, 616.000000)">
                <path d="M4.4,0 C1.969,0 0,2.2825 0,5.0875 L0,27.9125 C0,30.7153 1.969,33 4.4,33 L39.6,33 C42.031,33 44,30.7175 44,27.9125 L44,5.0875 C44,2.2825 42.031,0 39.6,0 L4.4,0 Z M15,11 L17.9335835,11 C18.0454034,9.08052833 18.4243902,7.35350092 19,6 C16.9204503,6.94020736 15.3962477,8.78298537 15,11 Z M15,14 C15.3969981,16.2170146 16.9204503,18.0597926 19,19 C18.4236398,17.6464991 18.0454034,15.9194717 17.9335835,14 L15,14 L15,14 Z M22.0004267,20 C22.65671,19.4319482 23.7729891,17.3755242 24,14 L20,14 C20.2278643,17.3747617 21.3441434,19.4319482 22.0004267,20 Z M20,12 L24,12 C23.7729891,8.62523828 22.65671,6.56805185 22.0004267,6 C21.34329,6.56805185 20.2270109,8.62523828 20,12 Z M25,19 C27.0795497,18.0597926 28.6037523,16.2170146 29,14 L26.0664165,14 C25.9545966,15.9194717 25.5763602,17.6464991 25,19 Z M30.75,30 L13.25,30 C12.5625,30 12,29.55 12,29 C12,28.45 12.5625,28 13.25,28 L30.75,28 C31.4375,28 32,28.45 32,29 C32,29.55 31.4375,30 30.75,30 Z M22,23 C16.4773437,23 12,18.5226563 12,13 C12,7.47734375 16.4773437,3 22,3 C27.5226563,3 32,7.47734375 32,13 C32,18.5226563 27.5226563,23 22,23 Z M25,6 C25.5763602,7.35350092 25.9545966,9.08052833 26.0664165,11 L29,11 C28.6037523,8.78298537 27.0795497,6.94020736 25,6 Z" id="形状"></path>
            </g>
        </g>
    </g>
</svg>