<?xml version="1.0" encoding="UTF-8"?>
<svg width="50px" height="50px" viewBox="0 0 50 50" version="1.1" xmlns="http://www.w3.org/2000/svg" xmlns:xlink="http://www.w3.org/1999/xlink">
    <title>phantom</title>
    <defs>
        <linearGradient x1="50%" y1="0%" x2="50%" y2="100%" id="linearGradient-1">
            <stop stop-color="#524BB1" offset="0%"></stop>
            <stop stop-color="#541AF9" offset="100%"></stop>
        </linearGradient>
        <path d="M14,0 C6.26788235,0 0,6.26788235 0,14 L0,14 C0,21.7321176 6.26788235,28 14,28 L14,28 C21.7321176,28 28,21.7321176 28,14 L28,14 C28,6.26788235 21.7321176,0 14,0 Z" id="path-2"></path>
        <path d="M0.00202904057,11.1092482 C-0.127689819,17.473067 5.98269613,23 12.4979304,23 L12.4979304,23 L13.3170423,23 C19.0612863,23 26.7607282,18.6073754 27.9627199,13.2558191 L27.9627199,13.2558191 C28.1844973,12.2681709 27.387354,11.3410327 26.3527415,11.3410327 L26.3527415,11.3410327 L23.2175204,11.3410327 C23.2175204,5.07772229 18.020397,0 11.6087286,0 L11.6087286,0 C5.27656524,0 0.127563421,4.95362526 0.00202904057,11.1092482 M9.24449777,11.6210202 L9.24449777,9.15651476 C9.24449777,8.31860341 9.94539805,7.63350575 10.8032163,7.63350575 L10.8032163,7.63350575 C11.6599885,7.63350575 12.3619349,8.31860341 12.3619349,9.15651476 L12.3619349,9.15651476 L12.3619349,11.6210202 C12.3619349,12.457906 11.6599885,13.1430037 10.8032163,13.1430037 L10.8032163,13.1430037 C9.94539805,13.1430037 9.24449777,12.457906 9.24449777,11.6210202 M3.83187375,11.6210202 L3.83187375,9.15651476 C3.83187375,8.31860341 4.53277404,7.63350575 5.3905923,7.63350575 L5.3905923,7.63350575 C6.24841056,7.63350575 6.95035697,8.31860341 6.95035697,9.15651476 L6.95035697,9.15651476 L6.95035697,11.6210202 C6.95035697,12.457906 6.24841056,13.1430037 5.3905923,13.1430037 L5.3905923,13.1430037 C4.53277404,13.1430037 3.83187375,12.457906 3.83187375,11.6210202" id="path-4"></path>
        <linearGradient x1="49.9995809%" y1="-0.000313921341%" x2="49.9995809%" y2="99.9977664%" id="linearGradient-6">
            <stop stop-color="#FFFFFF" offset="0%"></stop>
            <stop stop-color="#FFFFFF" offset="100%"></stop>
        </linearGradient>
    </defs>
    <g id="页面-1" stroke="none" stroke-width="1" fill="none" fill-rule="evenodd">
        <g id="tracker" transform="translate(-1235.000000, -657.000000)">
            <g id="phantom" transform="translate(1235.000000, 657.000000)">
                <circle id="椭圆形" fill="#E2DEFF" cx="25" cy="25" r="25"></circle>
                <path d="M25,0 C11.1926471,0 0,11.1926471 0,25 L0,25 C0,38.8073529 11.1926471,50 25,50 L25,50 C38.8073529,50 50,38.8073529 50,25 L50,25 C50,11.1926471 38.8073529,0 25,0 Z" id="Fill-1" fill="url(#linearGradient-1)"></path>
                <g id="编组" transform="translate(11.000000, 11.000000)">
                    <g>
                        <mask id="mask-3" fill="white">
                            <use xlink:href="#path-2"></use>
                        </mask>
                        <g id="Clip-2"></g>
                    </g>
                    <g transform="translate(0.000000, 2.000000)">
                        <mask id="mask-5" fill="white">
                            <use xlink:href="#path-4"></use>
                        </mask>
                        <g id="Clip-4"></g>
                        <path d="M0.00202904057,11.1092482 C-0.127689819,17.473067 5.98269613,23 12.4979304,23 L12.4979304,23 L13.3170423,23 C19.0612863,23 26.7607282,18.6073754 27.9627199,13.2558191 L27.9627199,13.2558191 C28.1844973,12.2681709 27.387354,11.3410327 26.3527415,11.3410327 L26.3527415,11.3410327 L23.2175204,11.3410327 C23.2175204,5.07772229 18.020397,0 11.6087286,0 L11.6087286,0 C5.27656524,0 0.127563421,4.95362526 0.00202904057,11.1092482 M9.24449777,11.6210202 L9.24449777,9.15651476 C9.24449777,8.31860341 9.94539805,7.63350575 10.8032163,7.63350575 L10.8032163,7.63350575 C11.6599885,7.63350575 12.3619349,8.31860341 12.3619349,9.15651476 L12.3619349,9.15651476 L12.3619349,11.6210202 C12.3619349,12.457906 11.6599885,13.1430037 10.8032163,13.1430037 L10.8032163,13.1430037 C9.94539805,13.1430037 9.24449777,12.457906 9.24449777,11.6210202 M3.83187375,11.6210202 L3.83187375,9.15651476 C3.83187375,8.31860341 4.53277404,7.63350575 5.3905923,7.63350575 L5.3905923,7.63350575 C6.24841056,7.63350575 6.95035697,8.31860341 6.95035697,9.15651476 L6.95035697,9.15651476 L6.95035697,11.6210202 C6.95035697,12.457906 6.24841056,13.1430037 5.3905923,13.1430037 L5.3905923,13.1430037 C4.53277404,13.1430037 3.83187375,12.457906 3.83187375,11.6210202" id="Fill-3" fill="url(#linearGradient-6)" mask="url(#mask-5)"></path>
                    </g>
                </g>
            </g>
        </g>
    </g>
</svg>