<?xml version="1.0" encoding="UTF-8"?>
<svg width="44px" height="44px" viewBox="0 0 44 44" version="1.1" xmlns="http://www.w3.org/2000/svg" xmlns:xlink="http://www.w3.org/1999/xlink">
    <title>path9</title>
    <g id="页面-2" stroke="none" stroke-width="1" fill="none" fill-rule="evenodd">
        <g id="HRI-Wallets-添加新账户" transform="translate(-566.000000, -437.000000)" fill="#FFFFFF" fill-rule="nonzero">
            <g id="编组-2" transform="translate(548.000000, 419.000000)">
                <path d="M26.5091811,57.3761449 C30.239003,60.2645424 34.9205666,62 39.9998395,62 C45.5582467,62 50.6255359,59.935498 54.4928494,56.5465763 C54.5397143,56.5051514 54.5166028,56.4777488 54.47038,56.5051514 C52.7349894,57.6646207 47.7889282,60.1956079 40.0000535,60.1956079 C33.2311849,60.1956079 28.9535364,58.6847226 26.5378564,57.3357904 C26.4916335,57.3129907 26.474514,57.347672 26.5091811,57.3761449 M41.493202,58.5007189 C46.9070557,58.5007189 52.8562174,57.0243008 56.4143085,54.1017572 C57.3879847,53.3054783 58.315438,52.2456642 59.1460587,50.8213751 C59.62423,50.0018684 60.0919156,49.0282224 60.4728263,48.0711677 C60.4897319,48.0244978 60.4609496,48.0018051 60.4258545,48.0542552 C57.1170673,52.9254824 47.5355584,55.9638444 37.6421521,55.9638444 C30.649124,55.9638444 23.1247468,53.7266851 20.1788948,49.4549953 C20.1498985,49.4154971 20.1209022,49.4324096 20.1385568,49.4777951 C22.8828257,55.3130344 31.2082923,58.5007189 41.493202,58.5007189 M35.5780655,48.8203485 C24.3183026,48.8203485 19.0090923,43.5740493 18.0460089,39.9938451 C18.0341322,39.9420372 18,39.9533836 18,39.9999465 C18,41.2052294 18.1205861,42.7606439 18.328054,43.7930555 C18.4270266,44.2956135 18.8358636,45.0842924 19.4352629,45.7129449 C22.1617703,48.556064 28.9593142,52.5399203 40.7315946,52.5399203 C56.7708238,52.5399203 60.4381592,47.1949292 61.1870339,45.437207 C61.7225558,44.1801161 62,41.9083825 62,40.0000535 C62,39.5382781 61.9884443,39.1694145 61.9710037,38.8072944 C61.9710037,38.7485288 61.9369785,38.7437119 61.9252088,38.8009789 C61.1236914,43.101998 47.4200012,48.8203485 35.5780655,48.8203485 M20.1209022,30.5619172 C19.4757079,31.8428782 18.7605374,34.0039313 18.5479336,35.1224039 C18.4547389,35.601627 18.4944349,35.8317654 18.6624208,36.1893898 C20.0119788,39.0539171 26.8383051,43.6372036 42.761442,43.6372036 C52.4757347,43.6372036 60.0220463,41.2496515 61.2445985,36.892757 C61.469721,36.0906979 61.4818117,35.2438956 61.1925977,34.1028373 C60.8694656,32.8277635 60.2642884,31.3408554 59.7520919,30.2967764 C59.7351863,30.2627373 59.7053341,30.2677682 59.7114329,30.3080157 C59.9016743,36.0225127 43.9722245,39.7054764 35.9349018,39.7054764 C27.2290595,39.7054764 19.96597,36.2354175 19.96597,31.8537964 C19.96597,31.4328037 20.0530658,31.011704 20.1617752,30.5734776 C20.1726889,30.5334443 20.1384498,30.5268077 20.1209022,30.5619172 M54.5284795,23.5456932 C54.6209253,23.6906268 54.6670412,23.8453013 54.6670412,24.0534962 C54.6670412,26.4978872 47.1888869,30.8221342 35.2846787,30.8221342 C26.5378564,30.8221342 24.9002614,27.5760053 24.9002614,25.5116103 C24.9002614,24.7736689 25.1831625,24.0186008 25.8062083,23.2517583 C25.8402334,23.2061588 25.8113442,23.188604 25.7720761,23.222536 C24.6357639,24.1859061 23.5916834,25.2699115 22.6757858,26.440085 C22.2381665,26.9934875 21.9665001,27.4837358 21.9665001,27.7774567 C21.9665001,32.0555689 32.6893501,35.1574064 42.7155402,35.1574064 C53.3985871,35.1574064 58.1663907,31.6685083 58.1663907,28.6024225 C58.1663907,27.5066426 57.7400061,26.8669649 56.6492747,25.6267866 C55.941273,24.8200177 55.2715764,24.1631063 54.5627187,23.516471 C54.5284795,23.4882121 54.5046191,23.5112259 54.5284795,23.5456932 M51.2533966,21.1018375 C47.9563791,19.124788 44.1276917,18 40.0000535,18 C35.843633,18 31.8996024,19.1640721 28.5907082,21.1934647 C27.5982005,21.8045624 27.0395671,22.2942755 27.0395671,22.9237843 C27.0395671,24.7794491 31.3745662,26.7746955 39.0654313,26.7746955 C46.6764764,26.7746955 52.5797362,24.589237 52.5797362,22.485558 C52.5797362,21.9834281 52.1410469,21.6321191 51.2533966,21.1018375" id="path9"></path>
            </g>
        </g>
    </g>
</svg>