<?xml version="1.0" encoding="UTF-8"?>
<svg width="20px" height="20px" viewBox="0 0 20 20" version="1.1" xmlns="http://www.w3.org/2000/svg" xmlns:xlink="http://www.w3.org/1999/xlink">
    <title>all-1</title>
    <g id="页面-1" stroke="none" stroke-width="1" fill="none" fill-rule="evenodd">
        <g id="主页0901-宽" transform="translate(-1300.000000, -890.000000)" fill-rule="nonzero">
            <g id="all-1" transform="translate(1300.000000, 890.000000)">
                <path d="M9.99998856,0 C4.47731103,0 0,4.47751699 0,10.0004691 C0,15.522872 4.47731103,20 9.99998856,20 C15.5229178,20 20,15.522872 20,10.0004691 C20,4.47751699 15.5229178,0 9.99998856,0 Z" id="形状" fill="#808191"></path>
                <g id="chain-2" transform="translate(4.000000, 4.000000)" fill="#FFFFFF">
                    <path d="M10.5882353,8.8235294 C10.5882353,8.62745097 10.5196079,8.4607843 10.382353,8.3235294 L8.85294119,6.79411764 C8.71568629,6.65686273 8.54901962,6.58823528 8.35294119,6.58823528 C8.14705883,6.58823528 7.97058825,6.66666666 7.82352943,6.8235294 C7.83823531,6.83823528 7.88480394,6.88357842 7.96323531,6.95955881 C8.04166668,7.03553921 8.09436276,7.08823528 8.12132354,7.11764705 C8.14828432,7.14705881 8.18504903,7.19362744 8.23161766,7.25735293 C8.2781863,7.32107843 8.31004904,7.38357843 8.32720589,7.44485294 C8.34436275,7.50612744 8.35294118,7.57352941 8.35294119,7.64705882 C8.35294119,7.84313725 8.28431374,8.00980392 8.14705883,8.14705882 C8.00980393,8.28431372 7.84313727,8.35294117 7.64705883,8.35294117 C7.57352942,8.35294117 7.50612746,8.34436274 7.44485295,8.32720588 C7.38357844,8.31004902 7.32107844,8.27818627 7.25735294,8.23161765 C7.19362745,8.18504903 7.14705882,8.14828432 7.11764706,8.12132353 C7.0882353,8.09436274 7.03553922,8.04166666 6.95955883,7.9632353 C6.88357843,7.88480393 6.8382353,7.83823531 6.82352941,7.82352941 C6.6617647,7.9754902 6.58088235,8.15441177 6.58088235,8.36029412 C6.58088235,8.55637255 6.6495098,8.72303922 6.7867647,8.86029412 L8.30147059,10.3823529 C8.43382352,10.5147059 8.60049019,10.5808823 8.80147059,10.5808823 C8.99754902,10.5808823 9.16421569,10.5171569 9.30147059,10.3897059 L10.3823529,9.31617647 C10.5196078,9.17892157 10.5882353,9.01470588 10.5882353,8.82352941 L10.5882353,8.8235294 Z M5.41911768,3.63970588 C5.41911768,3.44362745 5.35049021,3.27696078 5.21323531,3.13970588 L3.69852943,1.61764706 C3.56127452,1.48039216 3.39460786,1.41176471 3.19852943,1.41176471 C3.00735296,1.41176471 2.84068629,1.47794118 2.69852942,1.61029411 L1.61764707,2.68382352 C1.48039217,2.82107842 1.41176472,2.9852941 1.41176472,3.17647057 C1.41176472,3.372549 1.48039217,3.53921567 1.61764707,3.67647057 L3.14705884,5.20588234 C3.27941177,5.33823527 3.44607844,5.40441174 3.64705884,5.40441174 C3.85294119,5.40441174 4.02941178,5.32843135 4.1764706,5.17647056 C4.16176472,5.16176468 4.11519609,5.11642154 4.03676472,5.04044115 C3.95833335,4.96446075 3.90563727,4.91176471 3.87867648,4.88235292 C3.8517157,4.85294115 3.81495099,4.80637253 3.76838236,4.74264703 C3.72181373,4.67892154 3.68995099,4.61642153 3.67279413,4.55514703 C3.65563728,4.49387252 3.64705885,4.42647056 3.64705884,4.35294114 C3.64705884,4.15686271 3.71568629,3.99019604 3.85294119,3.85294114 C3.99019609,3.71568624 4.15686276,3.64705879 4.35294119,3.64705879 C4.42647061,3.64705879 4.49387257,3.65563722 4.55514708,3.67279408 C4.61642159,3.68995094 4.67892159,3.72181369 4.74264708,3.76838231 C4.80637258,3.81495093 4.85294121,3.85171564 4.88235297,3.87867643 C4.91176472,3.90563723 4.9644608,3.9583333 5.0404412,4.03676466 C5.11642159,4.11519603 5.16176473,4.16176466 5.17647062,4.17647055 C5.33823532,4.02450976 5.41911768,3.84558819 5.41911768,3.63970584 L5.41911768,3.63970588 Z M12,8.8235294 C12,9.4117647 11.7916667,9.90931372 11.375,10.3161765 L10.2941176,11.3897059 C9.8872549,11.7965686 9.38970588,12 8.80147059,12 C8.20833333,12 7.70833333,11.7916666 7.30147058,11.375 L5.7867647,9.85294115 C5.37990196,9.44607841 5.17647059,8.94852939 5.17647059,8.3602941 C5.17647059,7.75735292 5.39215686,7.24509802 5.82352941,6.8235294 L5.17647059,6.17647058 C4.75490196,6.60784312 4.24509804,6.8235294 3.64705883,6.8235294 C3.05882353,6.8235294 2.55882353,6.61764705 2.14705882,6.20588234 L0.617647058,4.67647058 C0.205882353,4.26470587 0,3.76470587 0,3.17647057 C0,2.58823528 0.208333335,2.09068626 0.625000005,1.68382352 L1.70588236,0.610294111 C2.1127451,0.20343137 2.61029412,0 3.19852941,0 C3.79166667,0 4.29166667,0.208333335 4.69852942,0.625000005 L6.2132353,2.14705882 C6.62009804,2.55392156 6.82352941,3.05147058 6.82352941,3.63970588 C6.82352941,4.24264705 6.60784314,4.75490195 6.17647059,5.17647058 L6.82352941,5.8235294 C7.24509804,5.39215685 7.75490196,5.17647058 8.35294117,5.17647058 C8.94117647,5.17647058 9.44117647,5.38235293 9.85294118,5.79411763 L11.3823529,7.3235294 C11.7941176,7.7352941 12,8.23529411 12,8.8235294 Z" id="形状"></path>
                </g>
            </g>
        </g>
    </g>
</svg>