<?xml version="1.0" encoding="UTF-8"?>
<svg width="50px" height="50px" viewBox="0 0 50 50" version="1.1" xmlns="http://www.w3.org/2000/svg" xmlns:xlink="http://www.w3.org/1999/xlink">
    <title>portis</title>
    <g id="页面-1" stroke="none" stroke-width="1" fill="none" fill-rule="evenodd">
        <g id="tracker" transform="translate(-894.000000, -657.000000)">
            <g id="portis" transform="translate(894.000000, 657.000000)">
                <circle id="椭圆形" fill="#C8EBFF" cx="25" cy="25" r="25"></circle>
                <g id="Layer_2-2" transform="translate(15.000000, 10.000000)" fill-rule="nonzero">
                    <g id="Layer_1-2-2">
                        <polygon id="路径" fill="#133444" points="0.319897077 17.2413793 1.06071136 16.9293924 10.1861964 13.0541872 20.0524957 17.2413793 16.3484243 24.7126437 7.29028601 25.9605911 0.471427271 18.7848933"></polygon>
                        <path d="M18.0152564,12.6436782 C16.3820977,10.7224959 14.0754714,9.4909688 11.5499681,9.16256158 L11.3816013,9.14614122 C10.5902769,9.04761905 9.79895256,9.04761905 9.00762822,9.14614122 L8.83926133,9.16256158 C6.3137581,9.4909688 4.0071318,10.7389163 2.37397304,12.6436782 L2.37397304,12.6436782 L1.96989253,13.3004926 L1.27958831,14.4006568 L0.77448766,15.2052545 L0.77448766,15.2052545 C0.77448766,15.2216749 0.757650971,15.2545156 0.740814283,15.270936 L0.740814283,15.2873563 L1.83519902,15.9277504 L8.82242464,19.9671593 L10.1693597,20.7389163 L10.1693597,11.1001642 L8.82242464,11.6912972 L8.82242464,10.2463054 L10.1693597,9.65517241 L11.5162948,10.2463054 L18.3856636,13.3004926 L18.0152564,12.6436782 Z" id="路径" fill="#C42370"></path>
                        <path d="M20.3555561,19.6387521 C20.3387194,22.8078818 18.8739275,25.7963875 16.365261,27.7996716 C15.4055698,28.5714286 14.3280217,29.1461412 13.1494535,29.5402299 C12.1897623,29.8522167 11.1963977,30 10.1861964,30 C4.56274252,30 0,25.1231527 0,19.6387521 C0,18.8341544 0.10102013,18.0295567 0.303060389,17.2413793 L10.1693597,22.9392447 L20.035659,17.2413793 C20.254536,18.0295567 20.3723928,18.8341544 20.3555561,19.6387521 Z" id="路径" fill="#1C4D6B"></path>
                        <polygon id="路径" fill="#000000" points="9.00762822 9.14614122 10.1861964 9.65517241 8.83926133 10.2627258 8.83926133 9.06403941"></polygon>
                        <polygon id="路径" fill="#000000" points="8.83926133 11.7077176 10.1861964 11.1001642 10.1861964 20.7553366 8.83926133 19.9671593"></polygon>
                        <polygon id="路径" fill="#1D4259" points="10.1861964 11.1001642 10.1861964 20.7553366 19.6484152 15.3037767"></polygon>
                        <polygon id="路径" fill="#4B6B9A" points="10.1861964 0 10.1861964 11.1001642 19.6484152 15.3037767"></polygon>
                        <path d="M10.1861964,11.1001642 L10.1861964,20.7389163 L8.83926133,19.9671593 L0.740814283,15.3037767 L0.723977595,15.3037767 L0.740814283,15.3037767 C0.740814283,15.2873563 0.757650971,15.2545156 0.77448766,15.2380952 L0.77448766,15.2380952 L1.95305584,13.316913 L8.82242464,10.2791461 L8.82242464,11.7077176 L10.1861964,11.1001642 Z" id="路径" fill="#343535"></path>
                        <polygon id="路径" fill="#3E5578" points="10.1861964 11.1001642 10.1861964 20.7553366 8.83926133 19.9671593 0.740814283 15.3037767 0.740814283 15.3037767 0.757650971 15.2873563 8.83926133 11.7077176"></polygon>
                        <polygon id="路径" fill="#6DB2D8" points="10.1861964 0 10.1861964 11.1001642 0.740814283 15.3037767"></polygon>
                        <path d="M6.36426816,29.2118227 C6.49896167,29.2775041 6.65049186,29.3267652 6.78518537,29.3760263 C6.65049186,29.3267652 6.51579835,29.2610837 6.36426816,29.2118227 Z" id="路径" fill="#335F8A"></path>
                        <path d="M6.78518537,29.3760263 C6.91987887,29.4252874 7.07140907,29.4909688 7.22293926,29.5238095 C7.08824575,29.4909688 6.93671556,29.4417077 6.78518537,29.3760263 Z" id="路径" fill="#335F8A"></path>
                        <path d="M7.61018309,29.6387521 C7.72803991,29.6715928 7.82906004,29.7044335 7.94691686,29.7208539 C7.82906004,29.7044335 7.71120322,29.6715928 7.61018309,29.6387521 Z" id="路径" fill="#335F8A"></path>
                        <path d="M0.319897077,17.2413793 L10.1861964,22.9392447 C10.0515029,23.8095238 9.81578925,24.6469622 9.47905549,25.4679803 C8.68773114,27.3399015 7.10508244,29.3103448 4.0071318,27.7996716 L4.0071318,27.7996716 C1.49846525,25.7963875 0.0336733765,22.8078818 0.0168366883,19.6387521 C0.0168366883,18.8341544 0.117856818,18.0295567 0.319897077,17.2413793 Z" id="路径" fill="#6DB2D8"></path>
                        <path d="M16.365261,27.7996716 L16.3315876,27.816092 C16.2810775,27.8489327 16.2305675,27.8981938 16.1800574,27.9310345 L16.1632207,27.9474548 C16.1127107,27.9967159 16.0453639,28.0295567 15.9948538,28.0788177 C15.9275071,28.1280788 15.876997,28.1773399 15.8096503,28.2101806 C15.7423035,28.2430213 15.6749568,28.2922824 15.6244467,28.3415435 C15.5570999,28.3908046 15.5065899,28.407225 15.4560798,28.456486 L15.4224064,28.4729064 C15.3550597,28.5057471 15.3045496,28.5385878 15.2540396,28.5878489 C15.2540396,28.5878489 15.2372029,28.5878489 15.2372029,28.6042693 C15.1698561,28.63711 15.1193461,28.6699507 15.0519993,28.7192118 C14.9846525,28.7520525 14.9173058,28.7848933 14.849959,28.8341544 C14.7826123,28.8669951 14.7152655,28.8998358 14.6479188,28.9326765 L14.6479188,28.9326765 L14.4458785,29.0311987 C14.3785318,29.0640394 14.311185,29.0968801 14.2438383,29.1297209 C14.1764915,29.1625616 14.1091448,29.1954023 14.041798,29.228243 C13.9071045,29.2939245 13.7555743,29.3431856 13.6208808,29.3924466 C13.4861873,29.4417077 13.3346571,29.4909688 13.1831269,29.5402299 C13.1326168,29.5566502 13.0652701,29.5730706 13.01476,29.589491 L12.8127198,29.6551724 C12.6948629,29.6880131 12.5938428,29.7208539 12.475986,29.7372742 C12.4423126,29.7536946 12.3918026,29.7536946 12.3412925,29.7701149 L12.2739457,29.7865353 L12.0887422,29.819376 C12.0213954,29.8357964 11.987722,29.8357964 11.9203753,29.8522167 C11.8698652,29.8686371 11.8193552,29.8686371 11.7688451,29.8850575 C11.718335,29.8850575 11.6509883,29.9014778 11.6004782,29.9178982 C11.5668048,29.9178982 11.5499681,29.9178982 11.5162948,29.9343186 L11.3816013,29.9507389 L11.3142545,29.9507389 C11.2637444,29.9507389 11.2132344,29.9671593 11.179561,29.9671593 C11.1290509,29.9671593 11.0617042,29.9835796 11.0111941,29.9835796 C10.9606841,29.9835796 10.9270107,29.9835796 10.8765006,29.9835796 C10.8259905,29.9835796 10.7923172,29.9835796 10.7586438,29.9835796 L10.7586438,29.9835796 C10.7081337,29.9835796 10.6576237,29.9835796 10.6239503,29.9835796 C10.5902769,29.9835796 10.4892568,29.9835796 10.4387467,29.9835796 L10.0346662,29.9835796 C9.96731945,29.9835796 9.89997269,29.9835796 9.84946263,29.9835796 C9.79895256,29.9835796 9.7484425,29.9835796 9.71476912,29.9835796 L9.71476912,29.9835796 C9.68109575,29.9835796 9.63058568,29.9835796 9.5969123,29.9835796 C9.56323893,29.9835796 9.51272886,29.9835796 9.4622188,29.9835796 C9.41170873,29.9835796 9.34436198,29.9671593 9.29385192,29.9671593 C9.24334185,29.9671593 9.19283179,29.9671593 9.15915841,29.9507389 L9.09181166,29.9507389 C9.05813828,29.9507389 9.00762822,29.9343186 8.95711815,29.9343186 C8.92344477,29.9343186 8.90660809,29.9343186 8.87293471,29.9178982 C8.82242464,29.9178982 8.75507789,29.9014778 8.70456783,29.8850575 C8.65405776,29.8850575 8.6035477,29.8686371 8.55303763,29.8522167 C8.50252757,29.8522167 8.43518082,29.8357964 8.38467075,29.819376 C8.33416069,29.8029557 8.26681393,29.7865353 8.19946718,29.7865353 L8.13212043,29.7701149 C8.08161036,29.7701149 8.0311003,29.7536946 7.99742692,29.7536946 C7.8795701,29.7208539 7.76171328,29.6880131 7.66069316,29.6715928 L7.4586529,29.6059113 C7.39130614,29.589491 7.34079608,29.5730706 7.29028601,29.5566502 C7.13875582,29.5073892 7.00406231,29.4581281 6.85253212,29.408867 C6.70100192,29.3596059 6.56630842,29.2939245 6.43161491,29.2446634 C6.36426816,29.2118227 6.29692141,29.1789819 6.22957465,29.1461412 L6.02753439,29.047619 L5.82549414,28.9490969 L5.82549414,28.9490969 C5.75814738,28.9162562 5.69080063,28.8834154 5.62345388,28.8505747 C5.55610712,28.817734 5.48876037,28.7848933 5.42141362,28.7356322 C5.35406686,28.7027915 5.3035568,28.6699507 5.23621005,28.6206897 L5.21937336,28.6042693 C5.15202661,28.5714286 5.10151654,28.5385878 5.05100648,28.4893268 L5.0173331,28.4729064 C4.96682303,28.4400657 4.89947628,28.407225 4.84896622,28.3579639 C4.79845615,28.3251232 4.71427271,28.2758621 4.66376265,28.226601 C4.59641589,28.1773399 4.52906914,28.1444992 4.47855908,28.0952381 L4.31019219,27.9638752 L4.2933555,27.9474548 C4.24284544,27.9146141 4.19233538,27.865353 4.14182531,27.8325123 L4.10815193,27.816092 C7.18926588,29.3103448 8.78875127,27.3399015 9.58007562,25.4844007 C9.91680938,24.679803 10.152523,23.8259442 10.2872165,22.955665 C10.42191,23.8259442 10.6576237,24.6633826 10.9943574,25.4844007 C11.6846616,27.3234811 13.284147,29.2939245 16.365261,27.7996716 Z" id="路径" fill="#529BBA"></path>
                        <path d="M12.4423126,29.7372742 C12.5601694,29.7044335 12.6780263,29.6715928 12.7790464,29.6551724 C12.6780263,29.6715928 12.5601694,29.7044335 12.4423126,29.7372742 Z" id="路径" fill="#335F8A"></path>
                        <path d="M13.1494535,29.5238095 C13.3009837,29.4745484 13.4356772,29.4252874 13.5872074,29.3760263 C13.4525139,29.4417077 13.3009837,29.4909688 13.1494535,29.5238095 Z" id="路径" fill="#335F8A"></path>
                        <path d="M13.5872074,29.3760263 C13.7219009,29.3267652 13.8734311,29.2610837 14.0081246,29.2118227 C13.8734311,29.2610837 13.7387376,29.3267652 13.5872074,29.3760263 Z" id="路径" fill="#335F8A"></path>
                        <path d="M20.3555561,19.6387521 C20.3387194,22.8078818 18.8739275,25.7963875 16.365261,27.7996716 C13.284147,29.2939245 11.6846616,27.3234811 10.8933373,25.4679803 C10.5566035,24.6633826 10.3208899,23.8095238 10.1861964,22.9392447 L20.0524957,17.2413793 C20.254536,18.0295567 20.3555561,18.8341544 20.3555561,19.6387521 Z" id="路径" fill="#4B6B9A"></path>
                    </g>
                </g>
            </g>
        </g>
    </g>
</svg>