<?xml version="1.0" encoding="UTF-8"?>
<svg width="20px" height="20px" viewBox="0 0 20 20" version="1.1" xmlns="http://www.w3.org/2000/svg" xmlns:xlink="http://www.w3.org/1999/xlink">
    <title>编组 6</title>
    <g id="页面-2" stroke="none" stroke-width="1" fill="none" fill-rule="evenodd">
        <g id="编组-6">
            <g id="icon-twitter" fill="#FFFFFF" fill-opacity="0.5" fill-rule="nonzero">
                <path d="M10,20 C15.5228475,20 20,15.5228475 20,10 C20,4.4771525 15.5228475,0 10,0 C4.4771525,0 0,4.4771525 0,10 C0,15.5228475 4.4771525,20 10,20 Z" id="形状"></path>
            </g>
            <path d="M15.3363333,7.851 C15.4988889,11.442 12.821,15.446 8.07966667,15.446 C6.63766667,15.446 5.296,15.0236667 4.16588889,14.2987778 C5.52077778,14.4582222 6.87255555,14.0825555 7.94588887,13.2417778 C6.82822222,13.2207778 5.88555555,12.4826667 5.56122222,11.4684445 C5.96177778,11.5446667 6.35533333,11.5221111 6.71388889,11.4248889 C5.48577778,11.1783333 4.63877778,10.0723333 4.666,8.88933333 C5.00977778,9.08066667 5.40411111,9.1957778 5.82177778,9.209 C4.68544445,8.44911113 4.36344445,6.948 5.03155555,5.8 C6.29077778,7.34466667 8.1722222,8.3612222 10.294,8.4677778 C9.92144447,6.871 11.134,5.33333333 12.7821111,5.33333333 C13.5155555,5.33333333 14.1797778,5.64288889 14.6448889,6.13988889 C15.2266667,6.02555555 15.7734445,5.81322222 16.2673333,5.52077778 C16.076,6.11733333 15.6715555,6.61744445 15.145,6.93322222 C15.6614445,6.871 16.1537778,6.73411111 16.6111111,6.53111111 C16.2696667,7.04133333 15.8364445,7.49088887 15.3363333,7.851 Z" id="形状-path" fill="#1A2736"></path>
        </g>
    </g>
</svg>