<?xml version="1.0" encoding="UTF-8"?>
<svg width="44px" height="37px" viewBox="0 0 44 37" version="1.1" xmlns="http://www.w3.org/2000/svg" xmlns:xlink="http://www.w3.org/1999/xlink">
    <title>telegram-1</title>
    <g id="页面-2" stroke="none" stroke-width="1" fill="none" fill-rule="evenodd">
        <g id="HRI-Wallets-添加新账户" transform="translate(-652.000000, -444.000000)" fill="#FFFFFF">
            <g id="iconmonstr-telegram-1" transform="translate(652.000000, 444.000000)">
                <path d="M33.7039623,36.5914662 C34.2942822,37.0132667 35.0550982,37.1187168 35.7334161,36.8597165 C36.411734,36.5988662 36.9103893,36.0142656 37.0607192,35.3057148 C38.6538496,27.7503061 42.5184283,8.6268341 43.968562,1.75407621 C44.0785595,1.23607561 43.8952303,0.697724992 43.4919062,0.351774594 C43.088582,0.00582419677 42.5294281,-0.094075918 42.0307728,0.0927742967 C34.343781,2.9639776 10.6704865,11.9272379 0.994373433,15.540292 C0.380220744,15.7696923 -0.0194368258,16.365393 0.000729381874,17.0184437 C0.0227288812,17.6733445 0.459052283,18.2412951 1.0878713,18.4318454 C5.42727254,19.7416469 11.1233096,21.563899 11.1233096,21.563899 C11.1233096,21.563899 13.785249,29.6761583 15.1730507,33.801663 C15.3472134,34.3196636 15.7487043,34.7266641 16.2785256,34.8672643 C16.8065135,35.0060144 17.3711674,34.8598642 17.765325,34.4843138 C19.9946076,32.3605114 23.4411959,29.0767576 23.4411959,29.0767576 C23.4411959,29.0767576 29.9897135,33.9219132 33.7039623,36.5914662 Z M13.5194217,20.5389978 L16.5975183,30.7843096 L17.2813361,24.2963521 C17.2813361,24.2963521 29.1738987,13.4719897 35.9534111,7.30223258 C36.1514066,7.12093237 36.1789059,6.81753202 36.0139097,6.60478178 C35.8507467,6.39203153 35.5500869,6.34208148 35.3245921,6.48638164 C27.4671042,11.5498375 13.5194217,20.5389978 13.5194217,20.5389978 Z" id="telegram-1"></path>
            </g>
        </g>
    </g>
</svg>