<?xml version="1.0" encoding="UTF-8"?>
<svg width="44px" height="36px" viewBox="0 0 44 36" version="1.1" xmlns="http://www.w3.org/2000/svg" xmlns:xlink="http://www.w3.org/1999/xlink">
    <title>形状-path</title>
    <g id="页面-2" stroke="none" stroke-width="1" fill="none" fill-rule="evenodd">
        <g id="HRI-Wallets-添加新账户" transform="translate(-830.000000, -441.000000)" fill="#FFFFFF">
            <g id="编组-2" transform="translate(548.000000, 419.000000)">
                <path d="M321.493032,30.9626211 C322.067746,43.7461929 312.600088,58 295.837135,58 C290.738954,58 285.9955,56.4965391 282,53.916013 C286.790201,54.4836178 291.569402,53.146285 295.364165,50.1532073 C291.412662,50.0784496 288.07987,47.4508538 286.933192,43.8403325 C288.349353,44.1116753 289.740766,44.0313798 291.008437,43.6852792 C286.666458,42.807568 283.671896,38.8703275 283.768139,34.6589755 C284.983564,35.3401015 286.377726,35.7498847 287.854384,35.7969543 C283.836885,33.0918321 282.698456,27.7480388 285.060559,23.6612829 C289.51253,29.1601292 296.164365,32.778957 303.665896,33.1582834 C302.348728,27.4739271 306.63571,22 312.462596,22 C315.055684,22 317.404037,23.1019843 319.048435,24.8712506 C321.105306,24.4642363 323.038435,23.7083526 324.784576,22.667282 C324.108118,24.7909552 322.678207,26.5712968 320.816574,27.6954315 C322.64246,27.4739271 324.383101,26.9866174 326,26.2639594 C324.792826,28.0802953 323.261171,29.6806645 321.493032,30.9626211 Z" id="形状-path"></path>
            </g>
        </g>
    </g>
</svg>