<?xml version="1.0" encoding="UTF-8"?>
<svg width="50px" height="50px" viewBox="0 0 50 50" version="1.1" xmlns="http://www.w3.org/2000/svg" xmlns:xlink="http://www.w3.org/1999/xlink">
    <title>walletconnect</title>
    <g id="页面-1" stroke="none" stroke-width="1" fill="none" fill-rule="evenodd">
        <g id="tracker" transform="translate(-692.000000, -657.000000)" fill-rule="nonzero">
            <g id="walletconnect" transform="translate(692.000000, 657.000000)">
                <rect id="base" fill="#DFEEFF" x="0" y="0" width="50" height="50" rx="25"></rect>
                <path d="M16.5243918,18.0206188 C21.2053488,13.4375716 28.7946796,13.4375716 33.4756364,18.0206188 L34.0389972,18.5721958 C34.273045,18.8013481 34.273045,19.1728775 34.0389972,19.40203 L32.1118525,21.2888652 C31.9948286,21.4034415 31.8050953,21.4034415 31.6880714,21.2888652 L30.9128201,20.5298296 C27.6472676,17.3325813 22.3527607,17.3325813 19.0872081,20.5298296 L18.2569781,21.3426941 C18.1399541,21.4572703 17.9502208,21.4572703 17.833197,21.3426941 L15.9060523,19.4558589 C15.6720045,19.2267064 15.6720045,18.8551771 15.9060523,18.6260247 L16.5243918,18.0206188 Z M37.4611535,21.9227936 L39.1763159,23.6020864 C39.4103626,23.8312377 39.410364,24.2027648 39.1763189,24.4319177 L31.442533,32.0040574 C31.2084868,32.2332115 30.8290203,32.2332141 30.5949708,32.0040634 C30.5949698,32.0040624 30.5949687,32.0040613 30.5949678,32.0040604 L25.1059971,26.6298923 C25.0474852,26.5726042 24.9526185,26.5726042 24.8941065,26.6298923 C24.8941062,26.6298927 24.8941059,26.6298931 24.8941055,26.6298934 L19.4052517,32.0040574 C19.1712062,32.2332121 18.7917396,32.2332159 18.5576894,32.0040658 C18.557688,32.0040645 18.5576865,32.0040631 18.5576851,32.0040616 L10.823684,24.4318212 C10.5896362,24.2026688 10.5896362,23.8311395 10.823684,23.6019871 L12.5388495,21.9226971 C12.7728973,21.6935447 13.1523639,21.6935447 13.3864117,21.9226971 L18.8754623,27.2969402 C18.9339743,27.3542283 19.0288408,27.3542283 19.0873528,27.2969402 C19.0873537,27.2969394 19.0873545,27.2969386 19.0873554,27.2969379 L24.5761309,21.9226971 C24.8101733,21.6935395 25.1896399,21.6935309 25.4236932,21.9226779 C25.4236964,21.9226812 25.4236996,21.9226844 25.4237028,21.9226876 L30.9127462,27.2969379 C30.9712581,27.3542259 31.0661248,27.3542259 31.1246367,27.2969379 L36.6135913,21.9227936 C36.8476392,21.6936411 37.2271057,21.6936411 37.4611535,21.9227936 Z" id="WalletConnect" fill="#3B99FC"></path>
            </g>
        </g>
    </g>
</svg>